<svg id="Layer_1" data-name="Layer 1" xmlns="http://www.w3.org/2000/svg" xmlns:xlink="http://www.w3.org/1999/xlink" viewBox="0 0 656.36 304.96"><defs><style>.cls-1{fill:#fff;}.cls-2{opacity:0.68;}.cls-3{clip-path:url(#clip-path);}.cls-4{fill:#dbdbdb;}</style><clipPath id="clip-path"><rect class="cls-1" x="38.84" y="15.69" width="605.57" height="288"/></clipPath></defs><g class="cls-2"><rect class="cls-1" x="38.84" y="15.69" width="605.57" height="288"/><g class="cls-3"><path class="cls-4" d="M17.83,2.56c1.48,0,2.68-.58,2.68-1.28S19.31,0,17.83,0s-2.69.57-2.69,1.28S16.34,2.56,17.83,2.56Z"/><path class="cls-4" d="M48.1,2.56c1.49,0,2.69-.58,2.69-1.28S49.59,0,48.1,0s-2.68.57-2.68,1.28S46.62,2.56,48.1,2.56Z"/><path class="cls-4" d="M78.38,2.56c1.49,0,2.69-.58,2.69-1.28S79.87,0,78.38,0,75.7.57,75.7,1.28,76.9,2.56,78.38,2.56Z"/><ellipse class="cls-4" cx="108.66" cy="1.28" rx="2.69" ry="1.28"/><path class="cls-4" d="M138.94,2.56c1.48,0,2.69-.58,2.69-1.28S140.42,0,138.94,0s-2.69.57-2.69,1.28S137.46,2.56,138.94,2.56Z"/><path class="cls-4" d="M169.22,2.56c1.48,0,2.69-.58,2.69-1.28S170.7,0,169.22,0s-2.69.57-2.69,1.28S167.74,2.56,169.22,2.56Z"/><path class="cls-4" d="M199.5,2.56c1.48,0,2.68-.58,2.68-1.28S201,0,199.5,0s-2.69.57-2.69,1.28S198,2.56,199.5,2.56Z"/><path class="cls-4" d="M229.77,2.56c1.49,0,2.69-.58,2.69-1.28S231.26,0,229.77,0s-2.68.57-2.68,1.28S228.29,2.56,229.77,2.56Z"/><ellipse class="cls-4" cx="260.05" cy="1.28" rx="2.69" ry="1.28"/><path class="cls-4" d="M290.33,2.56c1.49,0,2.69-.58,2.69-1.28S291.82,0,290.33,0s-2.68.57-2.68,1.28S288.85,2.56,290.33,2.56Z"/><path class="cls-4" d="M320.61,2.56c1.49,0,2.69-.58,2.69-1.28S322.1,0,320.61,0s-2.69.57-2.69,1.28S319.13,2.56,320.61,2.56Z"/><path class="cls-4" d="M350.89,2.56c1.48,0,2.69-.58,2.69-1.28S352.37,0,350.89,0s-2.69.57-2.69,1.28S349.41,2.56,350.89,2.56Z"/><path class="cls-4" d="M381.17,2.56c1.48,0,2.69-.58,2.69-1.28S382.65,0,381.17,0s-2.69.57-2.69,1.28S379.68,2.56,381.17,2.56Z"/><ellipse class="cls-4" cx="411.45" cy="1.28" rx="2.69" ry="1.28"/><path class="cls-4" d="M441.73,2.56c1.48,0,2.68-.58,2.68-1.28S443.21,0,441.73,0,439,.57,439,1.28,440.24,2.56,441.73,2.56Z"/><path class="cls-4" d="M472,2.56c1.49,0,2.69-.58,2.69-1.28S473.49,0,472,0s-2.68.57-2.68,1.28S470.52,2.56,472,2.56Z"/><path class="cls-4" d="M502.28,2.56c1.49,0,2.69-.58,2.69-1.28S503.77,0,502.28,0s-2.69.57-2.69,1.28S500.8,2.56,502.28,2.56Z"/><path class="cls-4" d="M532.56,2.56c1.48,0,2.69-.58,2.69-1.28S534,0,532.56,0s-2.69.57-2.69,1.28S531.08,2.56,532.56,2.56Z"/><ellipse class="cls-4" cx="562.84" cy="1.28" rx="2.69" ry="1.28"/><path class="cls-4" d="M593.12,2.56c1.48,0,2.68-.58,2.68-1.28S594.6,0,593.12,0s-2.69.57-2.69,1.28S591.63,2.56,593.12,2.56Z"/><path class="cls-4" d="M623.4,2.56c1.48,0,2.68-.58,2.68-1.28S624.88,0,623.4,0s-2.69.57-2.69,1.28S621.91,2.56,623.4,2.56Z"/><path class="cls-4" d="M653.68,2.56c1.48,0,2.68-.58,2.68-1.28S655.16,0,653.68,0,651,.57,651,1.28,652.19,2.56,653.68,2.56Z"/><path class="cls-4" d="M2.69,17c1.48,0,2.68-.58,2.68-1.28S4.17,14.4,2.69,14.4,0,15,0,15.68,1.2,17,2.69,17Z"/><ellipse class="cls-4" cx="32.97" cy="15.68" rx="2.69" ry="1.28"/><path class="cls-4" d="M63.24,17c1.49,0,2.69-.58,2.69-1.28s-1.2-1.28-2.69-1.28-2.68.57-2.68,1.28S61.76,17,63.24,17Z"/><path class="cls-4" d="M93.52,17c1.49,0,2.69-.58,2.69-1.28S95,14.4,93.52,14.4s-2.68.57-2.68,1.28S92,17,93.52,17Z"/><path class="cls-4" d="M123.8,17c1.48,0,2.69-.58,2.69-1.28s-1.21-1.28-2.69-1.28-2.69.57-2.69,1.28S122.32,17,123.8,17Z"/><path class="cls-4" d="M154.08,17c1.48,0,2.69-.58,2.69-1.28s-1.21-1.28-2.69-1.28-2.69.57-2.69,1.28S152.6,17,154.08,17Z"/><ellipse class="cls-4" cx="184.36" cy="15.68" rx="2.69" ry="1.28"/><path class="cls-4" d="M214.64,17c1.48,0,2.68-.58,2.68-1.28s-1.2-1.28-2.68-1.28S212,15,212,15.68,213.15,17,214.64,17Z"/><path class="cls-4" d="M244.91,17c1.49,0,2.69-.58,2.69-1.28s-1.2-1.28-2.69-1.28-2.68.57-2.68,1.28S243.43,17,244.91,17Z"/><path class="cls-4" d="M275.19,17c1.49,0,2.69-.58,2.69-1.28s-1.2-1.28-2.69-1.28-2.68.57-2.68,1.28S273.71,17,275.19,17Z"/><path class="cls-4" d="M305.47,17c1.49,0,2.69-.58,2.69-1.28s-1.2-1.28-2.69-1.28-2.68.57-2.68,1.28S304,17,305.47,17Z"/><ellipse class="cls-4" cx="335.75" cy="15.68" rx="2.69" ry="1.28"/><path class="cls-4" d="M366,17c1.48,0,2.69-.58,2.69-1.28S367.51,14.4,366,14.4s-2.69.57-2.69,1.28S364.54,17,366,17Z"/><path class="cls-4" d="M396.31,17c1.48,0,2.68-.58,2.68-1.28s-1.2-1.28-2.68-1.28-2.69.57-2.69,1.28S394.82,17,396.31,17Z"/><path class="cls-4" d="M426.59,17c1.48,0,2.68-.58,2.68-1.28s-1.2-1.28-2.68-1.28-2.69.57-2.69,1.28S425.1,17,426.59,17Z"/><path class="cls-4" d="M456.86,17c1.49,0,2.69-.58,2.69-1.28s-1.2-1.28-2.69-1.28-2.68.57-2.68,1.28S455.38,17,456.86,17Z"/><ellipse class="cls-4" cx="487.14" cy="15.68" rx="2.69" ry="1.28"/><path class="cls-4" d="M517.42,17c1.48,0,2.69-.58,2.69-1.28s-1.21-1.28-2.69-1.28-2.69.57-2.69,1.28S515.94,17,517.42,17Z"/><path class="cls-4" d="M547.7,17c1.48,0,2.69-.58,2.69-1.28s-1.21-1.28-2.69-1.28S545,15,545,15.68,546.22,17,547.7,17Z"/><path class="cls-4" d="M578,17c1.48,0,2.68-.58,2.68-1.28s-1.2-1.28-2.68-1.28-2.69.57-2.69,1.28S576.49,17,578,17Z"/><path class="cls-4" d="M608.26,17c1.48,0,2.68-.58,2.68-1.28s-1.2-1.28-2.68-1.28-2.69.57-2.69,1.28S606.77,17,608.26,17Z"/><ellipse class="cls-4" cx="638.54" cy="15.68" rx="2.69" ry="1.28"/><path class="cls-4" d="M17.83,31.36c1.48,0,2.68-.58,2.68-1.28s-1.2-1.28-2.68-1.28-2.69.57-2.69,1.28S16.34,31.36,17.83,31.36Z"/><path class="cls-4" d="M48.1,31.36c1.49,0,2.69-.58,2.69-1.28s-1.2-1.28-2.69-1.28-2.68.57-2.68,1.28S46.62,31.36,48.1,31.36Z"/><path class="cls-4" d="M78.38,31.36c1.49,0,2.69-.58,2.69-1.28s-1.2-1.28-2.69-1.28-2.68.57-2.68,1.28S76.9,31.36,78.38,31.36Z"/><path class="cls-4" d="M108.66,31.36c1.49,0,2.69-.58,2.69-1.28s-1.2-1.28-2.69-1.28-2.69.57-2.69,1.28S107.18,31.36,108.66,31.36Z"/><path class="cls-4" d="M138.94,31.36c1.48,0,2.69-.58,2.69-1.28s-1.21-1.28-2.69-1.28-2.69.57-2.69,1.28S137.46,31.36,138.94,31.36Z"/><path class="cls-4" d="M169.22,31.36c1.48,0,2.69-.58,2.69-1.28s-1.21-1.28-2.69-1.28-2.69.57-2.69,1.28S167.74,31.36,169.22,31.36Z"/><path class="cls-4" d="M199.5,31.36c1.48,0,2.68-.58,2.68-1.28S201,28.8,199.5,28.8s-2.69.57-2.69,1.28S198,31.36,199.5,31.36Z"/><path class="cls-4" d="M229.77,31.36c1.49,0,2.69-.58,2.69-1.28s-1.2-1.28-2.69-1.28-2.68.57-2.68,1.28S228.29,31.36,229.77,31.36Z"/><path class="cls-4" d="M260.05,31.36c1.49,0,2.69-.58,2.69-1.28s-1.2-1.28-2.69-1.28-2.68.57-2.68,1.28S258.57,31.36,260.05,31.36Z"/><path class="cls-4" d="M290.33,31.36c1.49,0,2.69-.58,2.69-1.28s-1.2-1.28-2.69-1.28-2.68.57-2.68,1.28S288.85,31.36,290.33,31.36Z"/><path class="cls-4" d="M320.61,31.36c1.49,0,2.69-.58,2.69-1.28s-1.2-1.28-2.69-1.28-2.69.57-2.69,1.28S319.13,31.36,320.61,31.36Z"/><path class="cls-4" d="M350.89,31.36c1.48,0,2.69-.58,2.69-1.28s-1.21-1.28-2.69-1.28-2.69.57-2.69,1.28S349.41,31.36,350.89,31.36Z"/><path class="cls-4" d="M381.17,31.36c1.48,0,2.69-.58,2.69-1.28s-1.21-1.28-2.69-1.28-2.69.57-2.69,1.28S379.68,31.36,381.17,31.36Z"/><path class="cls-4" d="M411.45,31.36c1.48,0,2.68-.58,2.68-1.28s-1.2-1.28-2.68-1.28-2.69.57-2.69,1.28S410,31.36,411.45,31.36Z"/><path class="cls-4" d="M441.73,31.36c1.48,0,2.68-.58,2.68-1.28s-1.2-1.28-2.68-1.28-2.69.57-2.69,1.28S440.24,31.36,441.73,31.36Z"/><path class="cls-4" d="M472,31.36c1.49,0,2.69-.58,2.69-1.28s-1.2-1.28-2.69-1.28-2.68.57-2.68,1.28S470.52,31.36,472,31.36Z"/><path class="cls-4" d="M502.28,31.36c1.49,0,2.69-.58,2.69-1.28s-1.2-1.28-2.69-1.28-2.69.57-2.69,1.28S500.8,31.36,502.28,31.36Z"/><path class="cls-4" d="M532.56,31.36c1.48,0,2.69-.58,2.69-1.28S534,28.8,532.56,28.8s-2.69.57-2.69,1.28S531.08,31.36,532.56,31.36Z"/><path class="cls-4" d="M562.84,31.36c1.48,0,2.69-.58,2.69-1.28s-1.21-1.28-2.69-1.28-2.69.57-2.69,1.28S561.35,31.36,562.84,31.36Z"/><path class="cls-4" d="M593.12,31.36c1.48,0,2.68-.58,2.68-1.28s-1.2-1.28-2.68-1.28-2.69.57-2.69,1.28S591.63,31.36,593.12,31.36Z"/><path class="cls-4" d="M623.4,31.36c1.48,0,2.68-.58,2.68-1.28s-1.2-1.28-2.68-1.28-2.69.57-2.69,1.28S621.91,31.36,623.4,31.36Z"/><path class="cls-4" d="M653.68,31.36c1.48,0,2.68-.58,2.68-1.28s-1.2-1.28-2.68-1.28-2.69.57-2.69,1.28S652.19,31.36,653.68,31.36Z"/><path class="cls-4" d="M2.69,45.76c1.48,0,2.68-.58,2.68-1.28S4.17,43.2,2.69,43.2,0,43.77,0,44.48,1.2,45.76,2.69,45.76Z"/><path class="cls-4" d="M33,45.76c1.48,0,2.68-.58,2.68-1.28S34.45,43.2,33,43.2s-2.69.57-2.69,1.28S31.48,45.76,33,45.76Z"/><path class="cls-4" d="M63.24,45.76c1.49,0,2.69-.58,2.69-1.28s-1.2-1.28-2.69-1.28-2.68.57-2.68,1.28S61.76,45.76,63.24,45.76Z"/><path class="cls-4" d="M93.52,45.76c1.49,0,2.69-.58,2.69-1.28S95,43.2,93.52,43.2s-2.68.57-2.68,1.28S92,45.76,93.52,45.76Z"/><path class="cls-4" d="M123.8,45.76c1.48,0,2.69-.58,2.69-1.28s-1.21-1.28-2.69-1.28-2.69.57-2.69,1.28S122.32,45.76,123.8,45.76Z"/><path class="cls-4" d="M154.08,45.76c1.48,0,2.69-.58,2.69-1.28s-1.21-1.28-2.69-1.28-2.69.57-2.69,1.28S152.6,45.76,154.08,45.76Z"/><path class="cls-4" d="M184.36,45.76c1.48,0,2.69-.58,2.69-1.28s-1.21-1.28-2.69-1.28-2.69.57-2.69,1.28S182.87,45.76,184.36,45.76Z"/><path class="cls-4" d="M214.64,45.76c1.48,0,2.68-.58,2.68-1.28s-1.2-1.28-2.68-1.28-2.69.57-2.69,1.28S213.15,45.76,214.64,45.76Z"/><path class="cls-4" d="M244.91,45.76c1.49,0,2.69-.58,2.69-1.28s-1.2-1.28-2.69-1.28-2.68.57-2.68,1.28S243.43,45.76,244.91,45.76Z"/><path class="cls-4" d="M275.19,45.76c1.49,0,2.69-.58,2.69-1.28s-1.2-1.28-2.69-1.28-2.68.57-2.68,1.28S273.71,45.76,275.19,45.76Z"/><path class="cls-4" d="M305.47,45.76c1.49,0,2.69-.58,2.69-1.28s-1.2-1.28-2.69-1.28-2.68.57-2.68,1.28S304,45.76,305.47,45.76Z"/><path class="cls-4" d="M335.75,45.76c1.48,0,2.69-.58,2.69-1.28s-1.21-1.28-2.69-1.28-2.69.57-2.69,1.28S334.27,45.76,335.75,45.76Z"/><path class="cls-4" d="M366,45.76c1.48,0,2.69-.58,2.69-1.28S367.51,43.2,366,43.2s-2.69.57-2.69,1.28S364.54,45.76,366,45.76Z"/><path class="cls-4" d="M396.31,45.76c1.48,0,2.68-.58,2.68-1.28s-1.2-1.28-2.68-1.28-2.69.57-2.69,1.28S394.82,45.76,396.31,45.76Z"/><path class="cls-4" d="M426.59,45.76c1.48,0,2.68-.58,2.68-1.28s-1.2-1.28-2.68-1.28-2.69.57-2.69,1.28S425.1,45.76,426.59,45.76Z"/><path class="cls-4" d="M456.86,45.76c1.49,0,2.69-.58,2.69-1.28s-1.2-1.28-2.69-1.28-2.68.57-2.68,1.28S455.38,45.76,456.86,45.76Z"/><path class="cls-4" d="M487.14,45.76c1.49,0,2.69-.58,2.69-1.28s-1.2-1.28-2.69-1.28-2.69.57-2.69,1.28S485.66,45.76,487.14,45.76Z"/><path class="cls-4" d="M517.42,45.76c1.48,0,2.69-.58,2.69-1.28s-1.21-1.28-2.69-1.28-2.69.57-2.69,1.28S515.94,45.76,517.42,45.76Z"/><path class="cls-4" d="M547.7,45.76c1.48,0,2.69-.58,2.69-1.28s-1.21-1.28-2.69-1.28-2.69.57-2.69,1.28S546.22,45.76,547.7,45.76Z"/><path class="cls-4" d="M578,45.76c1.48,0,2.68-.58,2.68-1.28s-1.2-1.28-2.68-1.28-2.69.57-2.69,1.28S576.49,45.76,578,45.76Z"/><path class="cls-4" d="M608.26,45.76c1.48,0,2.68-.58,2.68-1.28s-1.2-1.28-2.68-1.28-2.69.57-2.69,1.28S606.77,45.76,608.26,45.76Z"/><path class="cls-4" d="M638.54,45.76c1.48,0,2.68-.58,2.68-1.28s-1.2-1.28-2.68-1.28-2.69.57-2.69,1.28S637.05,45.76,638.54,45.76Z"/><path class="cls-4" d="M17.83,60.16c1.48,0,2.68-.58,2.68-1.28s-1.2-1.28-2.68-1.28-2.69.57-2.69,1.28S16.34,60.16,17.83,60.16Z"/><path class="cls-4" d="M48.1,60.16c1.49,0,2.69-.58,2.69-1.28s-1.2-1.28-2.69-1.28-2.68.57-2.68,1.28S46.62,60.16,48.1,60.16Z"/><path class="cls-4" d="M78.38,60.16c1.49,0,2.69-.58,2.69-1.28s-1.2-1.28-2.69-1.28-2.68.57-2.68,1.28S76.9,60.16,78.38,60.16Z"/><path class="cls-4" d="M108.66,60.16c1.49,0,2.69-.58,2.69-1.28s-1.2-1.28-2.69-1.28-2.69.57-2.69,1.28S107.18,60.16,108.66,60.16Z"/><path class="cls-4" d="M138.94,60.16c1.48,0,2.69-.58,2.69-1.28s-1.21-1.28-2.69-1.28-2.69.57-2.69,1.28S137.46,60.16,138.94,60.16Z"/><path class="cls-4" d="M169.22,60.16c1.48,0,2.69-.58,2.69-1.28s-1.21-1.28-2.69-1.28-2.69.57-2.69,1.28S167.74,60.16,169.22,60.16Z"/><path class="cls-4" d="M199.5,60.16c1.48,0,2.68-.58,2.68-1.28S201,57.6,199.5,57.6s-2.69.57-2.69,1.28S198,60.16,199.5,60.16Z"/><path class="cls-4" d="M229.77,60.16c1.49,0,2.69-.58,2.69-1.28s-1.2-1.28-2.69-1.28-2.68.57-2.68,1.28S228.29,60.16,229.77,60.16Z"/><path class="cls-4" d="M260.05,60.16c1.49,0,2.69-.58,2.69-1.28s-1.2-1.28-2.69-1.28-2.68.57-2.68,1.28S258.57,60.16,260.05,60.16Z"/><path class="cls-4" d="M290.33,60.16c1.49,0,2.69-.58,2.69-1.28s-1.2-1.28-2.69-1.28-2.68.57-2.68,1.28S288.85,60.16,290.33,60.16Z"/><path class="cls-4" d="M320.61,60.16c1.49,0,2.69-.58,2.69-1.28s-1.2-1.28-2.69-1.28-2.69.57-2.69,1.28S319.13,60.16,320.61,60.16Z"/><path class="cls-4" d="M350.89,60.16c1.48,0,2.69-.58,2.69-1.28s-1.21-1.28-2.69-1.28-2.69.57-2.69,1.28S349.41,60.16,350.89,60.16Z"/><path class="cls-4" d="M381.17,60.16c1.48,0,2.69-.58,2.69-1.28s-1.21-1.28-2.69-1.28-2.69.57-2.69,1.28S379.68,60.16,381.17,60.16Z"/><path class="cls-4" d="M411.45,60.16c1.48,0,2.68-.58,2.68-1.28s-1.2-1.28-2.68-1.28-2.69.57-2.69,1.28S410,60.16,411.45,60.16Z"/><path class="cls-4" d="M441.73,60.16c1.48,0,2.68-.58,2.68-1.28s-1.2-1.28-2.68-1.28-2.69.57-2.69,1.28S440.24,60.16,441.73,60.16Z"/><path class="cls-4" d="M472,60.16c1.49,0,2.69-.58,2.69-1.28s-1.2-1.28-2.69-1.28-2.68.57-2.68,1.28S470.52,60.16,472,60.16Z"/><path class="cls-4" d="M502.28,60.16c1.49,0,2.69-.58,2.69-1.28s-1.2-1.28-2.69-1.28-2.69.57-2.69,1.28S500.8,60.16,502.28,60.16Z"/><path class="cls-4" d="M532.56,60.16c1.48,0,2.69-.58,2.69-1.28S534,57.6,532.56,57.6s-2.69.57-2.69,1.28S531.08,60.16,532.56,60.16Z"/><path class="cls-4" d="M562.84,60.16c1.48,0,2.69-.58,2.69-1.28s-1.21-1.28-2.69-1.28-2.69.57-2.69,1.28S561.35,60.16,562.84,60.16Z"/><path class="cls-4" d="M593.12,60.16c1.48,0,2.68-.58,2.68-1.28s-1.2-1.28-2.68-1.28-2.69.57-2.69,1.28S591.63,60.16,593.12,60.16Z"/><path class="cls-4" d="M623.4,60.16c1.48,0,2.68-.58,2.68-1.28s-1.2-1.28-2.68-1.28-2.69.57-2.69,1.28S621.91,60.16,623.4,60.16Z"/><path class="cls-4" d="M653.68,60.16c1.48,0,2.68-.58,2.68-1.28s-1.2-1.28-2.68-1.28-2.69.57-2.69,1.28S652.19,60.16,653.68,60.16Z"/><path class="cls-4" d="M2.69,74.56c1.48,0,2.68-.58,2.68-1.28S4.17,72,2.69,72,0,72.57,0,73.28,1.2,74.56,2.69,74.56Z"/><ellipse class="cls-4" cx="32.97" cy="73.28" rx="2.69" ry="1.28"/><path class="cls-4" d="M63.24,74.56c1.49,0,2.69-.58,2.69-1.28S64.73,72,63.24,72s-2.68.57-2.68,1.28S61.76,74.56,63.24,74.56Z"/><path class="cls-4" d="M93.52,74.56c1.49,0,2.69-.58,2.69-1.28S95,72,93.52,72s-2.68.57-2.68,1.28S92,74.56,93.52,74.56Z"/><path class="cls-4" d="M123.8,74.56c1.48,0,2.69-.58,2.69-1.28S125.28,72,123.8,72s-2.69.57-2.69,1.28S122.32,74.56,123.8,74.56Z"/><path class="cls-4" d="M154.08,74.56c1.48,0,2.69-.58,2.69-1.28S155.56,72,154.08,72s-2.69.57-2.69,1.28S152.6,74.56,154.08,74.56Z"/><ellipse class="cls-4" cx="184.36" cy="73.28" rx="2.69" ry="1.28"/><path class="cls-4" d="M214.64,74.56c1.48,0,2.68-.58,2.68-1.28S216.12,72,214.64,72s-2.69.57-2.69,1.28S213.15,74.56,214.64,74.56Z"/><path class="cls-4" d="M244.91,74.56c1.49,0,2.69-.58,2.69-1.28S246.4,72,244.91,72s-2.68.57-2.68,1.28S243.43,74.56,244.91,74.56Z"/><path class="cls-4" d="M275.19,74.56c1.49,0,2.69-.58,2.69-1.28S276.68,72,275.19,72s-2.68.57-2.68,1.28S273.71,74.56,275.19,74.56Z"/><path class="cls-4" d="M305.47,74.56c1.49,0,2.69-.58,2.69-1.28S307,72,305.47,72s-2.68.57-2.68,1.28S304,74.56,305.47,74.56Z"/><ellipse class="cls-4" cx="335.75" cy="73.28" rx="2.69" ry="1.28"/><path class="cls-4" d="M366,74.56c1.48,0,2.69-.58,2.69-1.28S367.51,72,366,72s-2.69.57-2.69,1.28S364.54,74.56,366,74.56Z"/><path class="cls-4" d="M396.31,74.56c1.48,0,2.68-.58,2.68-1.28S397.79,72,396.31,72s-2.69.57-2.69,1.28S394.82,74.56,396.31,74.56Z"/><path class="cls-4" d="M426.59,74.56c1.48,0,2.68-.58,2.68-1.28S428.07,72,426.59,72s-2.69.57-2.69,1.28S425.1,74.56,426.59,74.56Z"/><path class="cls-4" d="M456.86,74.56c1.49,0,2.69-.58,2.69-1.28S458.35,72,456.86,72s-2.68.57-2.68,1.28S455.38,74.56,456.86,74.56Z"/><ellipse class="cls-4" cx="487.14" cy="73.28" rx="2.69" ry="1.28"/><path class="cls-4" d="M517.42,74.56c1.48,0,2.69-.58,2.69-1.28S518.9,72,517.42,72s-2.69.57-2.69,1.28S515.94,74.56,517.42,74.56Z"/><path class="cls-4" d="M547.7,74.56c1.48,0,2.69-.58,2.69-1.28S549.18,72,547.7,72s-2.69.57-2.69,1.28S546.22,74.56,547.7,74.56Z"/><path class="cls-4" d="M578,74.56c1.48,0,2.68-.58,2.68-1.28S579.46,72,578,72s-2.69.57-2.69,1.28S576.49,74.56,578,74.56Z"/><path class="cls-4" d="M608.26,74.56c1.48,0,2.68-.58,2.68-1.28S609.74,72,608.26,72s-2.69.57-2.69,1.28S606.77,74.56,608.26,74.56Z"/><ellipse class="cls-4" cx="638.54" cy="73.28" rx="2.69" ry="1.28"/><path class="cls-4" d="M17.83,89c1.48,0,2.68-.58,2.68-1.28s-1.2-1.28-2.68-1.28-2.69.57-2.69,1.28S16.34,89,17.83,89Z"/><path class="cls-4" d="M48.1,89c1.49,0,2.69-.58,2.69-1.28s-1.2-1.28-2.69-1.28-2.68.57-2.68,1.28S46.62,89,48.1,89Z"/><path class="cls-4" d="M78.38,89c1.49,0,2.69-.58,2.69-1.28s-1.2-1.28-2.69-1.28S75.7,87,75.7,87.68,76.9,89,78.38,89Z"/><ellipse class="cls-4" cx="108.66" cy="87.68" rx="2.69" ry="1.28"/><path class="cls-4" d="M138.94,89c1.48,0,2.69-.58,2.69-1.28s-1.21-1.28-2.69-1.28-2.69.57-2.69,1.28S137.46,89,138.94,89Z"/><path class="cls-4" d="M169.22,89c1.48,0,2.69-.58,2.69-1.28s-1.21-1.28-2.69-1.28-2.69.57-2.69,1.28S167.74,89,169.22,89Z"/><path class="cls-4" d="M199.5,89c1.48,0,2.68-.58,2.68-1.28S201,86.4,199.5,86.4s-2.69.57-2.69,1.28S198,89,199.5,89Z"/><path class="cls-4" d="M229.77,89c1.49,0,2.69-.58,2.69-1.28s-1.2-1.28-2.69-1.28-2.68.57-2.68,1.28S228.29,89,229.77,89Z"/><ellipse class="cls-4" cx="260.05" cy="87.68" rx="2.69" ry="1.28"/><path class="cls-4" d="M290.33,89c1.49,0,2.69-.58,2.69-1.28s-1.2-1.28-2.69-1.28-2.68.57-2.68,1.28S288.85,89,290.33,89Z"/><path class="cls-4" d="M320.61,89c1.49,0,2.69-.58,2.69-1.28s-1.2-1.28-2.69-1.28-2.69.57-2.69,1.28S319.13,89,320.61,89Z"/><path class="cls-4" d="M350.89,89c1.48,0,2.69-.58,2.69-1.28s-1.21-1.28-2.69-1.28-2.69.57-2.69,1.28S349.41,89,350.89,89Z"/><path class="cls-4" d="M381.17,89c1.48,0,2.69-.58,2.69-1.28s-1.21-1.28-2.69-1.28-2.69.57-2.69,1.28S379.68,89,381.17,89Z"/><ellipse class="cls-4" cx="411.45" cy="87.68" rx="2.69" ry="1.28"/><path class="cls-4" d="M441.73,89c1.48,0,2.68-.58,2.68-1.28s-1.2-1.28-2.68-1.28S439,87,439,87.68,440.24,89,441.73,89Z"/><path class="cls-4" d="M472,89c1.49,0,2.69-.58,2.69-1.28s-1.2-1.28-2.69-1.28-2.68.57-2.68,1.28S470.52,89,472,89Z"/><path class="cls-4" d="M502.28,89c1.49,0,2.69-.58,2.69-1.28s-1.2-1.28-2.69-1.28-2.69.57-2.69,1.28S500.8,89,502.28,89Z"/><path class="cls-4" d="M532.56,89c1.48,0,2.69-.58,2.69-1.28S534,86.4,532.56,86.4s-2.69.57-2.69,1.28S531.08,89,532.56,89Z"/><ellipse class="cls-4" cx="562.84" cy="87.68" rx="2.69" ry="1.28"/><path class="cls-4" d="M593.12,89c1.48,0,2.68-.58,2.68-1.28s-1.2-1.28-2.68-1.28-2.69.57-2.69,1.28S591.63,89,593.12,89Z"/><path class="cls-4" d="M623.4,89c1.48,0,2.68-.58,2.68-1.28s-1.2-1.28-2.68-1.28-2.69.57-2.69,1.28S621.91,89,623.4,89Z"/><path class="cls-4" d="M653.68,89c1.48,0,2.68-.58,2.68-1.28s-1.2-1.28-2.68-1.28S651,87,651,87.68,652.19,89,653.68,89Z"/><path class="cls-4" d="M2.69,103.36c1.48,0,2.68-.58,2.68-1.28s-1.2-1.28-2.68-1.28S0,101.37,0,102.08,1.2,103.36,2.69,103.36Z"/><path class="cls-4" d="M33,103.36c1.48,0,2.68-.58,2.68-1.28s-1.2-1.28-2.68-1.28-2.69.57-2.69,1.28S31.48,103.36,33,103.36Z"/><path class="cls-4" d="M63.24,103.36c1.49,0,2.69-.58,2.69-1.28s-1.2-1.28-2.69-1.28-2.68.57-2.68,1.28S61.76,103.36,63.24,103.36Z"/><path class="cls-4" d="M93.52,103.36c1.49,0,2.69-.58,2.69-1.28s-1.2-1.28-2.69-1.28-2.68.57-2.68,1.28S92,103.36,93.52,103.36Z"/><path class="cls-4" d="M123.8,103.36c1.48,0,2.69-.58,2.69-1.28s-1.21-1.28-2.69-1.28-2.69.57-2.69,1.28S122.32,103.36,123.8,103.36Z"/><path class="cls-4" d="M154.08,103.36c1.48,0,2.69-.58,2.69-1.28s-1.21-1.28-2.69-1.28-2.69.57-2.69,1.28S152.6,103.36,154.08,103.36Z"/><path class="cls-4" d="M184.36,103.36c1.48,0,2.69-.58,2.69-1.28s-1.21-1.28-2.69-1.28-2.69.57-2.69,1.28S182.87,103.36,184.36,103.36Z"/><path class="cls-4" d="M214.64,103.36c1.48,0,2.68-.58,2.68-1.28s-1.2-1.28-2.68-1.28-2.69.57-2.69,1.28S213.15,103.36,214.64,103.36Z"/><path class="cls-4" d="M244.91,103.36c1.49,0,2.69-.58,2.69-1.28s-1.2-1.28-2.69-1.28-2.68.57-2.68,1.28S243.43,103.36,244.91,103.36Z"/><path class="cls-4" d="M275.19,103.36c1.49,0,2.69-.58,2.69-1.28s-1.2-1.28-2.69-1.28-2.68.57-2.68,1.28S273.71,103.36,275.19,103.36Z"/><path class="cls-4" d="M305.47,103.36c1.49,0,2.69-.58,2.69-1.28s-1.2-1.28-2.69-1.28-2.68.57-2.68,1.28S304,103.36,305.47,103.36Z"/><path class="cls-4" d="M335.75,103.36c1.48,0,2.69-.58,2.69-1.28s-1.21-1.28-2.69-1.28-2.69.57-2.69,1.28S334.27,103.36,335.75,103.36Z"/><path class="cls-4" d="M366,103.36c1.48,0,2.69-.58,2.69-1.28s-1.21-1.28-2.69-1.28-2.69.57-2.69,1.28S364.54,103.36,366,103.36Z"/><path class="cls-4" d="M396.31,103.36c1.48,0,2.68-.58,2.68-1.28s-1.2-1.28-2.68-1.28-2.69.57-2.69,1.28S394.82,103.36,396.31,103.36Z"/><path class="cls-4" d="M426.59,103.36c1.48,0,2.68-.58,2.68-1.28s-1.2-1.28-2.68-1.28-2.69.57-2.69,1.28S425.1,103.36,426.59,103.36Z"/><path class="cls-4" d="M456.86,103.36c1.49,0,2.69-.58,2.69-1.28s-1.2-1.28-2.69-1.28-2.68.57-2.68,1.28S455.38,103.36,456.86,103.36Z"/><path class="cls-4" d="M487.14,103.36c1.49,0,2.69-.58,2.69-1.28s-1.2-1.28-2.69-1.28-2.69.57-2.69,1.28S485.66,103.36,487.14,103.36Z"/><path class="cls-4" d="M517.42,103.36c1.48,0,2.69-.58,2.69-1.28s-1.21-1.28-2.69-1.28-2.69.57-2.69,1.28S515.94,103.36,517.42,103.36Z"/><path class="cls-4" d="M547.7,103.36c1.48,0,2.69-.58,2.69-1.28s-1.21-1.28-2.69-1.28-2.69.57-2.69,1.28S546.22,103.36,547.7,103.36Z"/><path class="cls-4" d="M578,103.36c1.48,0,2.68-.58,2.68-1.28s-1.2-1.28-2.68-1.28-2.69.57-2.69,1.28S576.49,103.36,578,103.36Z"/><path class="cls-4" d="M608.26,103.36c1.48,0,2.68-.58,2.68-1.28s-1.2-1.28-2.68-1.28-2.69.57-2.69,1.28S606.77,103.36,608.26,103.36Z"/><path class="cls-4" d="M638.54,103.36c1.48,0,2.68-.58,2.68-1.28s-1.2-1.28-2.68-1.28-2.69.57-2.69,1.28S637.05,103.36,638.54,103.36Z"/><path class="cls-4" d="M17.83,117.76c1.48,0,2.68-.58,2.68-1.28s-1.2-1.28-2.68-1.28-2.69.57-2.69,1.28S16.34,117.76,17.83,117.76Z"/><path class="cls-4" d="M48.1,117.76c1.49,0,2.69-.58,2.69-1.28s-1.2-1.28-2.69-1.28-2.68.57-2.68,1.28S46.62,117.76,48.1,117.76Z"/><path class="cls-4" d="M78.38,117.76c1.49,0,2.69-.58,2.69-1.28s-1.2-1.28-2.69-1.28-2.68.57-2.68,1.28S76.9,117.76,78.38,117.76Z"/><path class="cls-4" d="M108.66,117.76c1.49,0,2.69-.58,2.69-1.28s-1.2-1.28-2.69-1.28-2.69.57-2.69,1.28S107.18,117.76,108.66,117.76Z"/><path class="cls-4" d="M138.94,117.76c1.48,0,2.69-.58,2.69-1.28s-1.21-1.28-2.69-1.28-2.69.57-2.69,1.28S137.46,117.76,138.94,117.76Z"/><path class="cls-4" d="M169.22,117.76c1.48,0,2.69-.58,2.69-1.28s-1.21-1.28-2.69-1.28-2.69.57-2.69,1.28S167.74,117.76,169.22,117.76Z"/><path class="cls-4" d="M199.5,117.76c1.48,0,2.68-.58,2.68-1.28s-1.2-1.28-2.68-1.28-2.69.57-2.69,1.28S198,117.76,199.5,117.76Z"/><path class="cls-4" d="M229.77,117.76c1.49,0,2.69-.58,2.69-1.28s-1.2-1.28-2.69-1.28-2.68.57-2.68,1.28S228.29,117.76,229.77,117.76Z"/><path class="cls-4" d="M260.05,117.76c1.49,0,2.69-.58,2.69-1.28s-1.2-1.28-2.69-1.28-2.68.57-2.68,1.28S258.57,117.76,260.05,117.76Z"/><path class="cls-4" d="M290.33,117.76c1.49,0,2.69-.58,2.69-1.28s-1.2-1.28-2.69-1.28-2.68.57-2.68,1.28S288.85,117.76,290.33,117.76Z"/><path class="cls-4" d="M320.61,117.76c1.49,0,2.69-.58,2.69-1.28s-1.2-1.28-2.69-1.28-2.69.57-2.69,1.28S319.13,117.76,320.61,117.76Z"/><path class="cls-4" d="M350.89,117.76c1.48,0,2.69-.58,2.69-1.28s-1.21-1.28-2.69-1.28-2.69.57-2.69,1.28S349.41,117.76,350.89,117.76Z"/><path class="cls-4" d="M381.17,117.76c1.48,0,2.69-.58,2.69-1.28s-1.21-1.28-2.69-1.28-2.69.57-2.69,1.28S379.68,117.76,381.17,117.76Z"/><path class="cls-4" d="M411.45,117.76c1.48,0,2.68-.58,2.68-1.28s-1.2-1.28-2.68-1.28-2.69.57-2.69,1.28S410,117.76,411.45,117.76Z"/><path class="cls-4" d="M441.73,117.76c1.48,0,2.68-.58,2.68-1.28s-1.2-1.28-2.68-1.28-2.69.57-2.69,1.28S440.24,117.76,441.73,117.76Z"/><path class="cls-4" d="M472,117.76c1.49,0,2.69-.58,2.69-1.28s-1.2-1.28-2.69-1.28-2.68.57-2.68,1.28S470.52,117.76,472,117.76Z"/><path class="cls-4" d="M502.28,117.76c1.49,0,2.69-.58,2.69-1.28s-1.2-1.28-2.69-1.28-2.69.57-2.69,1.28S500.8,117.76,502.28,117.76Z"/><path class="cls-4" d="M532.56,117.76c1.48,0,2.69-.58,2.69-1.28s-1.21-1.28-2.69-1.28-2.69.57-2.69,1.28S531.08,117.76,532.56,117.76Z"/><path class="cls-4" d="M562.84,117.76c1.48,0,2.69-.58,2.69-1.28s-1.21-1.28-2.69-1.28-2.69.57-2.69,1.28S561.35,117.76,562.84,117.76Z"/><path class="cls-4" d="M593.12,117.76c1.48,0,2.68-.58,2.68-1.28s-1.2-1.28-2.68-1.28-2.69.57-2.69,1.28S591.63,117.76,593.12,117.76Z"/><path class="cls-4" d="M623.4,117.76c1.48,0,2.68-.58,2.68-1.28s-1.2-1.28-2.68-1.28-2.69.57-2.69,1.28S621.91,117.76,623.4,117.76Z"/><path class="cls-4" d="M653.68,117.76c1.48,0,2.68-.58,2.68-1.28s-1.2-1.28-2.68-1.28-2.69.57-2.69,1.28S652.19,117.76,653.68,117.76Z"/><path class="cls-4" d="M2.69,132.16c1.48,0,2.68-.58,2.68-1.28s-1.2-1.28-2.68-1.28S0,130.17,0,130.88,1.2,132.16,2.69,132.16Z"/><path class="cls-4" d="M33,132.16c1.48,0,2.68-.58,2.68-1.28s-1.2-1.28-2.68-1.28-2.69.57-2.69,1.28S31.48,132.16,33,132.16Z"/><path class="cls-4" d="M63.24,132.16c1.49,0,2.69-.58,2.69-1.28s-1.2-1.28-2.69-1.28-2.68.57-2.68,1.28S61.76,132.16,63.24,132.16Z"/><path class="cls-4" d="M93.52,132.16c1.49,0,2.69-.58,2.69-1.28s-1.2-1.28-2.69-1.28-2.68.57-2.68,1.28S92,132.16,93.52,132.16Z"/><path class="cls-4" d="M123.8,132.16c1.48,0,2.69-.58,2.69-1.28s-1.21-1.28-2.69-1.28-2.69.57-2.69,1.28S122.32,132.16,123.8,132.16Z"/><path class="cls-4" d="M154.08,132.16c1.48,0,2.69-.58,2.69-1.28s-1.21-1.28-2.69-1.28-2.69.57-2.69,1.28S152.6,132.16,154.08,132.16Z"/><path class="cls-4" d="M184.36,132.16c1.48,0,2.69-.58,2.69-1.28s-1.21-1.28-2.69-1.28-2.69.57-2.69,1.28S182.87,132.16,184.36,132.16Z"/><path class="cls-4" d="M214.64,132.16c1.48,0,2.68-.58,2.68-1.28s-1.2-1.28-2.68-1.28-2.69.57-2.69,1.28S213.15,132.16,214.64,132.16Z"/><path class="cls-4" d="M244.91,132.16c1.49,0,2.69-.58,2.69-1.28s-1.2-1.28-2.69-1.28-2.68.57-2.68,1.28S243.43,132.16,244.91,132.16Z"/><path class="cls-4" d="M275.19,132.16c1.49,0,2.69-.58,2.69-1.28s-1.2-1.28-2.69-1.28-2.68.57-2.68,1.28S273.71,132.16,275.19,132.16Z"/><path class="cls-4" d="M305.47,132.16c1.49,0,2.69-.58,2.69-1.28s-1.2-1.28-2.69-1.28-2.68.57-2.68,1.28S304,132.16,305.47,132.16Z"/><path class="cls-4" d="M335.75,132.16c1.48,0,2.69-.58,2.69-1.28s-1.21-1.28-2.69-1.28-2.69.57-2.69,1.28S334.27,132.16,335.75,132.16Z"/><path class="cls-4" d="M366,132.16c1.48,0,2.69-.58,2.69-1.28s-1.21-1.28-2.69-1.28-2.69.57-2.69,1.28S364.54,132.16,366,132.16Z"/><path class="cls-4" d="M396.31,132.16c1.48,0,2.68-.58,2.68-1.28s-1.2-1.28-2.68-1.28-2.69.57-2.69,1.28S394.82,132.16,396.31,132.16Z"/><path class="cls-4" d="M426.59,132.16c1.48,0,2.68-.58,2.68-1.28s-1.2-1.28-2.68-1.28-2.69.57-2.69,1.28S425.1,132.16,426.59,132.16Z"/><path class="cls-4" d="M456.86,132.16c1.49,0,2.69-.58,2.69-1.28s-1.2-1.28-2.69-1.28-2.68.57-2.68,1.28S455.38,132.16,456.86,132.16Z"/><path class="cls-4" d="M487.14,132.16c1.49,0,2.69-.58,2.69-1.28s-1.2-1.28-2.69-1.28-2.69.57-2.69,1.28S485.66,132.16,487.14,132.16Z"/><path class="cls-4" d="M517.42,132.16c1.48,0,2.69-.58,2.69-1.28s-1.21-1.28-2.69-1.28-2.69.57-2.69,1.28S515.94,132.16,517.42,132.16Z"/><path class="cls-4" d="M547.7,132.16c1.48,0,2.69-.58,2.69-1.28s-1.21-1.28-2.69-1.28-2.69.57-2.69,1.28S546.22,132.16,547.7,132.16Z"/><path class="cls-4" d="M578,132.16c1.48,0,2.68-.58,2.68-1.28s-1.2-1.28-2.68-1.28-2.69.57-2.69,1.28S576.49,132.16,578,132.16Z"/><path class="cls-4" d="M608.26,132.16c1.48,0,2.68-.58,2.68-1.28s-1.2-1.28-2.68-1.28-2.69.57-2.69,1.28S606.77,132.16,608.26,132.16Z"/><path class="cls-4" d="M638.54,132.16c1.48,0,2.68-.58,2.68-1.28s-1.2-1.28-2.68-1.28-2.69.57-2.69,1.28S637.05,132.16,638.54,132.16Z"/><path class="cls-4" d="M17.83,146.56c1.48,0,2.68-.58,2.68-1.28S19.31,144,17.83,144s-2.69.57-2.69,1.28S16.34,146.56,17.83,146.56Z"/><path class="cls-4" d="M48.1,146.56c1.49,0,2.69-.58,2.69-1.28S49.59,144,48.1,144s-2.68.57-2.68,1.28S46.62,146.56,48.1,146.56Z"/><path class="cls-4" d="M78.38,146.56c1.49,0,2.69-.58,2.69-1.28S79.87,144,78.38,144s-2.68.57-2.68,1.28S76.9,146.56,78.38,146.56Z"/><ellipse class="cls-4" cx="108.66" cy="145.28" rx="2.69" ry="1.28"/><path class="cls-4" d="M138.94,146.56c1.48,0,2.69-.58,2.69-1.28s-1.21-1.28-2.69-1.28-2.69.57-2.69,1.28S137.46,146.56,138.94,146.56Z"/><path class="cls-4" d="M169.22,146.56c1.48,0,2.69-.58,2.69-1.28S170.7,144,169.22,144s-2.69.57-2.69,1.28S167.74,146.56,169.22,146.56Z"/><path class="cls-4" d="M199.5,146.56c1.48,0,2.68-.58,2.68-1.28S201,144,199.5,144s-2.69.57-2.69,1.28S198,146.56,199.5,146.56Z"/><path class="cls-4" d="M229.77,146.56c1.49,0,2.69-.58,2.69-1.28s-1.2-1.28-2.69-1.28-2.68.57-2.68,1.28S228.29,146.56,229.77,146.56Z"/><ellipse class="cls-4" cx="260.05" cy="145.28" rx="2.69" ry="1.28"/><path class="cls-4" d="M290.33,146.56c1.49,0,2.69-.58,2.69-1.28s-1.2-1.28-2.69-1.28-2.68.57-2.68,1.28S288.85,146.56,290.33,146.56Z"/><path class="cls-4" d="M320.61,146.56c1.49,0,2.69-.58,2.69-1.28s-1.2-1.28-2.69-1.28-2.69.57-2.69,1.28S319.13,146.56,320.61,146.56Z"/><path class="cls-4" d="M350.89,146.56c1.48,0,2.69-.58,2.69-1.28s-1.21-1.28-2.69-1.28-2.69.57-2.69,1.28S349.41,146.56,350.89,146.56Z"/><path class="cls-4" d="M381.17,146.56c1.48,0,2.69-.58,2.69-1.28s-1.21-1.28-2.69-1.28-2.69.57-2.69,1.28S379.68,146.56,381.17,146.56Z"/><ellipse class="cls-4" cx="411.45" cy="145.28" rx="2.69" ry="1.28"/><path class="cls-4" d="M441.73,146.56c1.48,0,2.68-.58,2.68-1.28s-1.2-1.28-2.68-1.28-2.69.57-2.69,1.28S440.24,146.56,441.73,146.56Z"/><path class="cls-4" d="M472,146.56c1.49,0,2.69-.58,2.69-1.28S473.49,144,472,144s-2.68.57-2.68,1.28S470.52,146.56,472,146.56Z"/><path class="cls-4" d="M502.28,146.56c1.49,0,2.69-.58,2.69-1.28s-1.2-1.28-2.69-1.28-2.69.57-2.69,1.28S500.8,146.56,502.28,146.56Z"/><path class="cls-4" d="M532.56,146.56c1.48,0,2.69-.58,2.69-1.28S534,144,532.56,144s-2.69.57-2.69,1.28S531.08,146.56,532.56,146.56Z"/><ellipse class="cls-4" cx="562.84" cy="145.28" rx="2.69" ry="1.28"/><path class="cls-4" d="M593.12,146.56c1.48,0,2.68-.58,2.68-1.28s-1.2-1.28-2.68-1.28-2.69.57-2.69,1.28S591.63,146.56,593.12,146.56Z"/><path class="cls-4" d="M623.4,146.56c1.48,0,2.68-.58,2.68-1.28s-1.2-1.28-2.68-1.28-2.69.57-2.69,1.28S621.91,146.56,623.4,146.56Z"/><path class="cls-4" d="M653.68,146.56c1.48,0,2.68-.58,2.68-1.28s-1.2-1.28-2.68-1.28-2.69.57-2.69,1.28S652.19,146.56,653.68,146.56Z"/><path class="cls-4" d="M2.69,161c1.48,0,2.68-.58,2.68-1.28s-1.2-1.28-2.68-1.28S0,159,0,159.68,1.2,161,2.69,161Z"/><ellipse class="cls-4" cx="32.97" cy="159.68" rx="2.69" ry="1.28"/><path class="cls-4" d="M63.24,161c1.49,0,2.69-.58,2.69-1.28s-1.2-1.28-2.69-1.28-2.68.57-2.68,1.28S61.76,161,63.24,161Z"/><path class="cls-4" d="M93.52,161c1.49,0,2.69-.58,2.69-1.28s-1.2-1.28-2.69-1.28-2.68.57-2.68,1.28S92,161,93.52,161Z"/><path class="cls-4" d="M123.8,161c1.48,0,2.69-.58,2.69-1.28s-1.21-1.28-2.69-1.28-2.69.57-2.69,1.28S122.32,161,123.8,161Z"/><path class="cls-4" d="M154.08,161c1.48,0,2.69-.58,2.69-1.28s-1.21-1.28-2.69-1.28-2.69.57-2.69,1.28S152.6,161,154.08,161Z"/><ellipse class="cls-4" cx="184.36" cy="159.68" rx="2.69" ry="1.28"/><path class="cls-4" d="M214.64,161c1.48,0,2.68-.58,2.68-1.28s-1.2-1.28-2.68-1.28S212,159,212,159.68,213.15,161,214.64,161Z"/><path class="cls-4" d="M244.91,161c1.49,0,2.69-.58,2.69-1.28s-1.2-1.28-2.69-1.28-2.68.57-2.68,1.28S243.43,161,244.91,161Z"/><path class="cls-4" d="M275.19,161c1.49,0,2.69-.58,2.69-1.28s-1.2-1.28-2.69-1.28-2.68.57-2.68,1.28S273.71,161,275.19,161Z"/><path class="cls-4" d="M305.47,161c1.49,0,2.69-.58,2.69-1.28s-1.2-1.28-2.69-1.28-2.68.57-2.68,1.28S304,161,305.47,161Z"/><ellipse class="cls-4" cx="335.75" cy="159.68" rx="2.69" ry="1.28"/><path class="cls-4" d="M366,161c1.48,0,2.69-.58,2.69-1.28s-1.21-1.28-2.69-1.28-2.69.57-2.69,1.28S364.54,161,366,161Z"/><path class="cls-4" d="M396.31,161c1.48,0,2.68-.58,2.68-1.28s-1.2-1.28-2.68-1.28-2.69.57-2.69,1.28S394.82,161,396.31,161Z"/><path class="cls-4" d="M426.59,161c1.48,0,2.68-.58,2.68-1.28s-1.2-1.28-2.68-1.28-2.69.57-2.69,1.28S425.1,161,426.59,161Z"/><path class="cls-4" d="M456.86,161c1.49,0,2.69-.58,2.69-1.28s-1.2-1.28-2.69-1.28-2.68.57-2.68,1.28S455.38,161,456.86,161Z"/><ellipse class="cls-4" cx="487.14" cy="159.68" rx="2.69" ry="1.28"/><path class="cls-4" d="M517.42,161c1.48,0,2.69-.58,2.69-1.28s-1.21-1.28-2.69-1.28-2.69.57-2.69,1.28S515.94,161,517.42,161Z"/><path class="cls-4" d="M547.7,161c1.48,0,2.69-.58,2.69-1.28s-1.21-1.28-2.69-1.28S545,159,545,159.68,546.22,161,547.7,161Z"/><path class="cls-4" d="M578,161c1.48,0,2.68-.58,2.68-1.28s-1.2-1.28-2.68-1.28-2.69.57-2.69,1.28S576.49,161,578,161Z"/><path class="cls-4" d="M608.26,161c1.48,0,2.68-.58,2.68-1.28s-1.2-1.28-2.68-1.28-2.69.57-2.69,1.28S606.77,161,608.26,161Z"/><ellipse class="cls-4" cx="638.54" cy="159.68" rx="2.69" ry="1.28"/><path class="cls-4" d="M17.83,175.36c1.48,0,2.68-.58,2.68-1.28s-1.2-1.28-2.68-1.28-2.69.57-2.69,1.28S16.34,175.36,17.83,175.36Z"/><path class="cls-4" d="M48.1,175.36c1.49,0,2.69-.58,2.69-1.28s-1.2-1.28-2.69-1.28-2.68.57-2.68,1.28S46.62,175.36,48.1,175.36Z"/><path class="cls-4" d="M78.38,175.36c1.49,0,2.69-.58,2.69-1.28s-1.2-1.28-2.69-1.28-2.68.57-2.68,1.28S76.9,175.36,78.38,175.36Z"/><path class="cls-4" d="M108.66,175.36c1.49,0,2.69-.58,2.69-1.28s-1.2-1.28-2.69-1.28-2.69.57-2.69,1.28S107.18,175.36,108.66,175.36Z"/><path class="cls-4" d="M138.94,175.36c1.48,0,2.69-.58,2.69-1.28s-1.21-1.28-2.69-1.28-2.69.57-2.69,1.28S137.46,175.36,138.94,175.36Z"/><path class="cls-4" d="M169.22,175.36c1.48,0,2.69-.58,2.69-1.28s-1.21-1.28-2.69-1.28-2.69.57-2.69,1.28S167.74,175.36,169.22,175.36Z"/><path class="cls-4" d="M199.5,175.36c1.48,0,2.68-.58,2.68-1.28s-1.2-1.28-2.68-1.28-2.69.57-2.69,1.28S198,175.36,199.5,175.36Z"/><path class="cls-4" d="M229.77,175.36c1.49,0,2.69-.58,2.69-1.28s-1.2-1.28-2.69-1.28-2.68.57-2.68,1.28S228.29,175.36,229.77,175.36Z"/><path class="cls-4" d="M260.05,175.36c1.49,0,2.69-.58,2.69-1.28s-1.2-1.28-2.69-1.28-2.68.57-2.68,1.28S258.57,175.36,260.05,175.36Z"/><path class="cls-4" d="M290.33,175.36c1.49,0,2.69-.58,2.69-1.28s-1.2-1.28-2.69-1.28-2.68.57-2.68,1.28S288.85,175.36,290.33,175.36Z"/><path class="cls-4" d="M320.61,175.36c1.49,0,2.69-.58,2.69-1.28s-1.2-1.28-2.69-1.28-2.69.57-2.69,1.28S319.13,175.36,320.61,175.36Z"/><path class="cls-4" d="M350.89,175.36c1.48,0,2.69-.58,2.69-1.28s-1.21-1.28-2.69-1.28-2.69.57-2.69,1.28S349.41,175.36,350.89,175.36Z"/><path class="cls-4" d="M381.17,175.36c1.48,0,2.69-.58,2.69-1.28s-1.21-1.28-2.69-1.28-2.69.57-2.69,1.28S379.68,175.36,381.17,175.36Z"/><path class="cls-4" d="M411.45,175.36c1.48,0,2.68-.58,2.68-1.28s-1.2-1.28-2.68-1.28-2.69.57-2.69,1.28S410,175.36,411.45,175.36Z"/><path class="cls-4" d="M441.73,175.36c1.48,0,2.68-.58,2.68-1.28s-1.2-1.28-2.68-1.28-2.69.57-2.69,1.28S440.24,175.36,441.73,175.36Z"/><path class="cls-4" d="M472,175.36c1.49,0,2.69-.58,2.69-1.28s-1.2-1.28-2.69-1.28-2.68.57-2.68,1.28S470.52,175.36,472,175.36Z"/><path class="cls-4" d="M502.28,175.36c1.49,0,2.69-.58,2.69-1.28s-1.2-1.28-2.69-1.28-2.69.57-2.69,1.28S500.8,175.36,502.28,175.36Z"/><path class="cls-4" d="M532.56,175.36c1.48,0,2.69-.58,2.69-1.28s-1.21-1.28-2.69-1.28-2.69.57-2.69,1.28S531.08,175.36,532.56,175.36Z"/><path class="cls-4" d="M562.84,175.36c1.48,0,2.69-.58,2.69-1.28s-1.21-1.28-2.69-1.28-2.69.57-2.69,1.28S561.35,175.36,562.84,175.36Z"/><path class="cls-4" d="M593.12,175.36c1.48,0,2.68-.58,2.68-1.28s-1.2-1.28-2.68-1.28-2.69.57-2.69,1.28S591.63,175.36,593.12,175.36Z"/><path class="cls-4" d="M623.4,175.36c1.48,0,2.68-.58,2.68-1.28s-1.2-1.28-2.68-1.28-2.69.57-2.69,1.28S621.91,175.36,623.4,175.36Z"/><path class="cls-4" d="M653.68,175.36c1.48,0,2.68-.58,2.68-1.28s-1.2-1.28-2.68-1.28-2.69.57-2.69,1.28S652.19,175.36,653.68,175.36Z"/><path class="cls-4" d="M2.69,189.76c1.48,0,2.68-.58,2.68-1.28s-1.2-1.28-2.68-1.28S0,187.77,0,188.48,1.2,189.76,2.69,189.76Z"/><path class="cls-4" d="M33,189.76c1.48,0,2.68-.58,2.68-1.28s-1.2-1.28-2.68-1.28-2.69.57-2.69,1.28S31.48,189.76,33,189.76Z"/><path class="cls-4" d="M63.24,189.76c1.49,0,2.69-.58,2.69-1.28s-1.2-1.28-2.69-1.28-2.68.57-2.68,1.28S61.76,189.76,63.24,189.76Z"/><path class="cls-4" d="M93.52,189.76c1.49,0,2.69-.58,2.69-1.28s-1.2-1.28-2.69-1.28-2.68.57-2.68,1.28S92,189.76,93.52,189.76Z"/><path class="cls-4" d="M123.8,189.76c1.48,0,2.69-.58,2.69-1.28s-1.21-1.28-2.69-1.28-2.69.57-2.69,1.28S122.32,189.76,123.8,189.76Z"/><path class="cls-4" d="M154.08,189.76c1.48,0,2.69-.58,2.69-1.28s-1.21-1.28-2.69-1.28-2.69.57-2.69,1.28S152.6,189.76,154.08,189.76Z"/><path class="cls-4" d="M184.36,189.76c1.48,0,2.69-.58,2.69-1.28s-1.21-1.28-2.69-1.28-2.69.57-2.69,1.28S182.87,189.76,184.36,189.76Z"/><path class="cls-4" d="M214.64,189.76c1.48,0,2.68-.58,2.68-1.28s-1.2-1.28-2.68-1.28-2.69.57-2.69,1.28S213.15,189.76,214.64,189.76Z"/><path class="cls-4" d="M244.91,189.76c1.49,0,2.69-.58,2.69-1.28s-1.2-1.28-2.69-1.28-2.68.57-2.68,1.28S243.43,189.76,244.91,189.76Z"/><path class="cls-4" d="M275.19,189.76c1.49,0,2.69-.58,2.69-1.28s-1.2-1.28-2.69-1.28-2.68.57-2.68,1.28S273.71,189.76,275.19,189.76Z"/><path class="cls-4" d="M305.47,189.76c1.49,0,2.69-.58,2.69-1.28s-1.2-1.28-2.69-1.28-2.68.57-2.68,1.28S304,189.76,305.47,189.76Z"/><path class="cls-4" d="M335.75,189.76c1.48,0,2.69-.58,2.69-1.28s-1.21-1.28-2.69-1.28-2.69.57-2.69,1.28S334.27,189.76,335.75,189.76Z"/><path class="cls-4" d="M366,189.76c1.48,0,2.69-.58,2.69-1.28s-1.21-1.28-2.69-1.28-2.69.57-2.69,1.28S364.54,189.76,366,189.76Z"/><path class="cls-4" d="M396.31,189.76c1.48,0,2.68-.58,2.68-1.28s-1.2-1.28-2.68-1.28-2.69.57-2.69,1.28S394.82,189.76,396.31,189.76Z"/><path class="cls-4" d="M426.59,189.76c1.48,0,2.68-.58,2.68-1.28s-1.2-1.28-2.68-1.28-2.69.57-2.69,1.28S425.1,189.76,426.59,189.76Z"/><path class="cls-4" d="M456.86,189.76c1.49,0,2.69-.58,2.69-1.28s-1.2-1.28-2.69-1.28-2.68.57-2.68,1.28S455.38,189.76,456.86,189.76Z"/><path class="cls-4" d="M487.14,189.76c1.49,0,2.69-.58,2.69-1.28s-1.2-1.28-2.69-1.28-2.69.57-2.69,1.28S485.66,189.76,487.14,189.76Z"/><path class="cls-4" d="M517.42,189.76c1.48,0,2.69-.58,2.69-1.28s-1.21-1.28-2.69-1.28-2.69.57-2.69,1.28S515.94,189.76,517.42,189.76Z"/><path class="cls-4" d="M547.7,189.76c1.48,0,2.69-.58,2.69-1.28s-1.21-1.28-2.69-1.28-2.69.57-2.69,1.28S546.22,189.76,547.7,189.76Z"/><path class="cls-4" d="M578,189.76c1.48,0,2.68-.58,2.68-1.28s-1.2-1.28-2.68-1.28-2.69.57-2.69,1.28S576.49,189.76,578,189.76Z"/><path class="cls-4" d="M608.26,189.76c1.48,0,2.68-.58,2.68-1.28s-1.2-1.28-2.68-1.28-2.69.57-2.69,1.28S606.77,189.76,608.26,189.76Z"/><path class="cls-4" d="M638.54,189.76c1.48,0,2.68-.58,2.68-1.28s-1.2-1.28-2.68-1.28-2.69.57-2.69,1.28S637.05,189.76,638.54,189.76Z"/><path class="cls-4" d="M17.83,204.16c1.48,0,2.68-.58,2.68-1.28s-1.2-1.28-2.68-1.28-2.69.57-2.69,1.28S16.34,204.16,17.83,204.16Z"/><path class="cls-4" d="M48.1,204.16c1.49,0,2.69-.58,2.69-1.28s-1.2-1.28-2.69-1.28-2.68.57-2.68,1.28S46.62,204.16,48.1,204.16Z"/><path class="cls-4" d="M78.38,204.16c1.49,0,2.69-.58,2.69-1.28s-1.2-1.28-2.69-1.28-2.68.57-2.68,1.28S76.9,204.16,78.38,204.16Z"/><path class="cls-4" d="M108.66,204.16c1.49,0,2.69-.58,2.69-1.28s-1.2-1.28-2.69-1.28-2.69.57-2.69,1.28S107.18,204.16,108.66,204.16Z"/><path class="cls-4" d="M138.94,204.16c1.48,0,2.69-.58,2.69-1.28s-1.21-1.28-2.69-1.28-2.69.57-2.69,1.28S137.46,204.16,138.94,204.16Z"/><path class="cls-4" d="M169.22,204.16c1.48,0,2.69-.58,2.69-1.28s-1.21-1.28-2.69-1.28-2.69.57-2.69,1.28S167.74,204.16,169.22,204.16Z"/><path class="cls-4" d="M199.5,204.16c1.48,0,2.68-.58,2.68-1.28s-1.2-1.28-2.68-1.28-2.69.57-2.69,1.28S198,204.16,199.5,204.16Z"/><path class="cls-4" d="M229.77,204.16c1.49,0,2.69-.58,2.69-1.28s-1.2-1.28-2.69-1.28-2.68.57-2.68,1.28S228.29,204.16,229.77,204.16Z"/><path class="cls-4" d="M260.05,204.16c1.49,0,2.69-.58,2.69-1.28s-1.2-1.28-2.69-1.28-2.68.57-2.68,1.28S258.57,204.16,260.05,204.16Z"/><path class="cls-4" d="M290.33,204.16c1.49,0,2.69-.58,2.69-1.28s-1.2-1.28-2.69-1.28-2.68.57-2.68,1.28S288.85,204.16,290.33,204.16Z"/><path class="cls-4" d="M320.61,204.16c1.49,0,2.69-.58,2.69-1.28s-1.2-1.28-2.69-1.28-2.69.57-2.69,1.28S319.13,204.16,320.61,204.16Z"/><path class="cls-4" d="M350.89,204.16c1.48,0,2.69-.58,2.69-1.28s-1.21-1.28-2.69-1.28-2.69.57-2.69,1.28S349.41,204.16,350.89,204.16Z"/><path class="cls-4" d="M381.17,204.16c1.48,0,2.69-.58,2.69-1.28s-1.21-1.28-2.69-1.28-2.69.57-2.69,1.28S379.68,204.16,381.17,204.16Z"/><path class="cls-4" d="M411.45,204.16c1.48,0,2.68-.58,2.68-1.28s-1.2-1.28-2.68-1.28-2.69.57-2.69,1.28S410,204.16,411.45,204.16Z"/><path class="cls-4" d="M441.73,204.16c1.48,0,2.68-.58,2.68-1.28s-1.2-1.28-2.68-1.28-2.69.57-2.69,1.28S440.24,204.16,441.73,204.16Z"/><path class="cls-4" d="M472,204.16c1.49,0,2.69-.58,2.69-1.28s-1.2-1.28-2.69-1.28-2.68.57-2.68,1.28S470.52,204.16,472,204.16Z"/><path class="cls-4" d="M502.28,204.16c1.49,0,2.69-.58,2.69-1.28s-1.2-1.28-2.69-1.28-2.69.57-2.69,1.28S500.8,204.16,502.28,204.16Z"/><path class="cls-4" d="M532.56,204.16c1.48,0,2.69-.58,2.69-1.28s-1.21-1.28-2.69-1.28-2.69.57-2.69,1.28S531.08,204.16,532.56,204.16Z"/><path class="cls-4" d="M562.84,204.16c1.48,0,2.69-.58,2.69-1.28s-1.21-1.28-2.69-1.28-2.69.57-2.69,1.28S561.35,204.16,562.84,204.16Z"/><path class="cls-4" d="M593.12,204.16c1.48,0,2.68-.58,2.68-1.28s-1.2-1.28-2.68-1.28-2.69.57-2.69,1.28S591.63,204.16,593.12,204.16Z"/><path class="cls-4" d="M623.4,204.16c1.48,0,2.68-.58,2.68-1.28s-1.2-1.28-2.68-1.28-2.69.57-2.69,1.28S621.91,204.16,623.4,204.16Z"/><path class="cls-4" d="M653.68,204.16c1.48,0,2.68-.58,2.68-1.28s-1.2-1.28-2.68-1.28-2.69.57-2.69,1.28S652.19,204.16,653.68,204.16Z"/><path class="cls-4" d="M2.69,218.56c1.48,0,2.68-.58,2.68-1.28S4.17,216,2.69,216,0,216.57,0,217.28,1.2,218.56,2.69,218.56Z"/><ellipse class="cls-4" cx="32.97" cy="217.28" rx="2.69" ry="1.28"/><path class="cls-4" d="M63.24,218.56c1.49,0,2.69-.58,2.69-1.28S64.73,216,63.24,216s-2.68.57-2.68,1.28S61.76,218.56,63.24,218.56Z"/><path class="cls-4" d="M93.52,218.56c1.49,0,2.69-.58,2.69-1.28S95,216,93.52,216s-2.68.57-2.68,1.28S92,218.56,93.52,218.56Z"/><path class="cls-4" d="M123.8,218.56c1.48,0,2.69-.58,2.69-1.28S125.28,216,123.8,216s-2.69.57-2.69,1.28S122.32,218.56,123.8,218.56Z"/><path class="cls-4" d="M154.08,218.56c1.48,0,2.69-.58,2.69-1.28s-1.21-1.28-2.69-1.28-2.69.57-2.69,1.28S152.6,218.56,154.08,218.56Z"/><ellipse class="cls-4" cx="184.36" cy="217.28" rx="2.69" ry="1.28"/><path class="cls-4" d="M214.64,218.56c1.48,0,2.68-.58,2.68-1.28s-1.2-1.28-2.68-1.28-2.69.57-2.69,1.28S213.15,218.56,214.64,218.56Z"/><path class="cls-4" d="M244.91,218.56c1.49,0,2.69-.58,2.69-1.28s-1.2-1.28-2.69-1.28-2.68.57-2.68,1.28S243.43,218.56,244.91,218.56Z"/><path class="cls-4" d="M275.19,218.56c1.49,0,2.69-.58,2.69-1.28s-1.2-1.28-2.69-1.28-2.68.57-2.68,1.28S273.71,218.56,275.19,218.56Z"/><path class="cls-4" d="M305.47,218.56c1.49,0,2.69-.58,2.69-1.28S307,216,305.47,216s-2.68.57-2.68,1.28S304,218.56,305.47,218.56Z"/><ellipse class="cls-4" cx="335.75" cy="217.28" rx="2.69" ry="1.28"/><path class="cls-4" d="M366,218.56c1.48,0,2.69-.58,2.69-1.28S367.51,216,366,216s-2.69.57-2.69,1.28S364.54,218.56,366,218.56Z"/><path class="cls-4" d="M396.31,218.56c1.48,0,2.68-.58,2.68-1.28s-1.2-1.28-2.68-1.28-2.69.57-2.69,1.28S394.82,218.56,396.31,218.56Z"/><path class="cls-4" d="M426.59,218.56c1.48,0,2.68-.58,2.68-1.28s-1.2-1.28-2.68-1.28-2.69.57-2.69,1.28S425.1,218.56,426.59,218.56Z"/><path class="cls-4" d="M456.86,218.56c1.49,0,2.69-.58,2.69-1.28s-1.2-1.28-2.69-1.28-2.68.57-2.68,1.28S455.38,218.56,456.86,218.56Z"/><ellipse class="cls-4" cx="487.14" cy="217.28" rx="2.69" ry="1.28"/><path class="cls-4" d="M517.42,218.56c1.48,0,2.69-.58,2.69-1.28S518.9,216,517.42,216s-2.69.57-2.69,1.28S515.94,218.56,517.42,218.56Z"/><path class="cls-4" d="M547.7,218.56c1.48,0,2.69-.58,2.69-1.28S549.18,216,547.7,216s-2.69.57-2.69,1.28S546.22,218.56,547.7,218.56Z"/><path class="cls-4" d="M578,218.56c1.48,0,2.68-.58,2.68-1.28S579.46,216,578,216s-2.69.57-2.69,1.28S576.49,218.56,578,218.56Z"/><path class="cls-4" d="M608.26,218.56c1.48,0,2.68-.58,2.68-1.28s-1.2-1.28-2.68-1.28-2.69.57-2.69,1.28S606.77,218.56,608.26,218.56Z"/><ellipse class="cls-4" cx="638.54" cy="217.28" rx="2.69" ry="1.28"/><path class="cls-4" d="M17.83,233c1.48,0,2.68-.58,2.68-1.28s-1.2-1.28-2.68-1.28-2.69.57-2.69,1.28S16.34,233,17.83,233Z"/><path class="cls-4" d="M48.1,233c1.49,0,2.69-.58,2.69-1.28s-1.2-1.28-2.69-1.28-2.68.57-2.68,1.28S46.62,233,48.1,233Z"/><path class="cls-4" d="M78.38,233c1.49,0,2.69-.58,2.69-1.28s-1.2-1.28-2.69-1.28-2.68.57-2.68,1.28S76.9,233,78.38,233Z"/><ellipse class="cls-4" cx="108.66" cy="231.68" rx="2.69" ry="1.28"/><path class="cls-4" d="M138.94,233c1.48,0,2.69-.58,2.69-1.28s-1.21-1.28-2.69-1.28-2.69.57-2.69,1.28S137.46,233,138.94,233Z"/><path class="cls-4" d="M169.22,233c1.48,0,2.69-.58,2.69-1.28s-1.21-1.28-2.69-1.28-2.69.57-2.69,1.28S167.74,233,169.22,233Z"/><path class="cls-4" d="M199.5,233c1.48,0,2.68-.58,2.68-1.28s-1.2-1.28-2.68-1.28-2.69.57-2.69,1.28S198,233,199.5,233Z"/><path class="cls-4" d="M229.77,233c1.49,0,2.69-.58,2.69-1.28s-1.2-1.28-2.69-1.28-2.68.57-2.68,1.28S228.29,233,229.77,233Z"/><ellipse class="cls-4" cx="260.05" cy="231.68" rx="2.69" ry="1.28"/><path class="cls-4" d="M290.33,233c1.49,0,2.69-.58,2.69-1.28s-1.2-1.28-2.69-1.28-2.68.57-2.68,1.28S288.85,233,290.33,233Z"/><path class="cls-4" d="M320.61,233c1.49,0,2.69-.58,2.69-1.28s-1.2-1.28-2.69-1.28-2.69.57-2.69,1.28S319.13,233,320.61,233Z"/><path class="cls-4" d="M350.89,233c1.48,0,2.69-.58,2.69-1.28s-1.21-1.28-2.69-1.28-2.69.57-2.69,1.28S349.41,233,350.89,233Z"/><path class="cls-4" d="M381.17,233c1.48,0,2.69-.58,2.69-1.28s-1.21-1.28-2.69-1.28-2.69.57-2.69,1.28S379.68,233,381.17,233Z"/><ellipse class="cls-4" cx="411.45" cy="231.68" rx="2.69" ry="1.28"/><path class="cls-4" d="M441.73,233c1.48,0,2.68-.58,2.68-1.28s-1.2-1.28-2.68-1.28S439,231,439,231.68,440.24,233,441.73,233Z"/><path class="cls-4" d="M472,233c1.49,0,2.69-.58,2.69-1.28s-1.2-1.28-2.69-1.28-2.68.57-2.68,1.28S470.52,233,472,233Z"/><path class="cls-4" d="M502.28,233c1.49,0,2.69-.58,2.69-1.28s-1.2-1.28-2.69-1.28-2.69.57-2.69,1.28S500.8,233,502.28,233Z"/><path class="cls-4" d="M532.56,233c1.48,0,2.69-.58,2.69-1.28s-1.21-1.28-2.69-1.28-2.69.57-2.69,1.28S531.08,233,532.56,233Z"/><ellipse class="cls-4" cx="562.84" cy="231.68" rx="2.69" ry="1.28"/><path class="cls-4" d="M593.12,233c1.48,0,2.68-.58,2.68-1.28s-1.2-1.28-2.68-1.28-2.69.57-2.69,1.28S591.63,233,593.12,233Z"/><path class="cls-4" d="M623.4,233c1.48,0,2.68-.58,2.68-1.28s-1.2-1.28-2.68-1.28-2.69.57-2.69,1.28S621.91,233,623.4,233Z"/><path class="cls-4" d="M653.68,233c1.48,0,2.68-.58,2.68-1.28s-1.2-1.28-2.68-1.28S651,231,651,231.68,652.19,233,653.68,233Z"/><path class="cls-4" d="M2.69,247.36c1.48,0,2.68-.58,2.68-1.28s-1.2-1.28-2.68-1.28S0,245.37,0,246.08,1.2,247.36,2.69,247.36Z"/><path class="cls-4" d="M33,247.36c1.48,0,2.68-.58,2.68-1.28s-1.2-1.28-2.68-1.28-2.69.57-2.69,1.28S31.48,247.36,33,247.36Z"/><path class="cls-4" d="M63.24,247.36c1.49,0,2.69-.58,2.69-1.28s-1.2-1.28-2.69-1.28-2.68.57-2.68,1.28S61.76,247.36,63.24,247.36Z"/><path class="cls-4" d="M93.52,247.36c1.49,0,2.69-.58,2.69-1.28s-1.2-1.28-2.69-1.28-2.68.57-2.68,1.28S92,247.36,93.52,247.36Z"/><path class="cls-4" d="M123.8,247.36c1.48,0,2.69-.58,2.69-1.28s-1.21-1.28-2.69-1.28-2.69.57-2.69,1.28S122.32,247.36,123.8,247.36Z"/><path class="cls-4" d="M154.08,247.36c1.48,0,2.69-.58,2.69-1.28s-1.21-1.28-2.69-1.28-2.69.57-2.69,1.28S152.6,247.36,154.08,247.36Z"/><path class="cls-4" d="M184.36,247.36c1.48,0,2.69-.58,2.69-1.28s-1.21-1.28-2.69-1.28-2.69.57-2.69,1.28S182.87,247.36,184.36,247.36Z"/><path class="cls-4" d="M214.64,247.36c1.48,0,2.68-.58,2.68-1.28s-1.2-1.28-2.68-1.28-2.69.57-2.69,1.28S213.15,247.36,214.64,247.36Z"/><path class="cls-4" d="M244.91,247.36c1.49,0,2.69-.58,2.69-1.28s-1.2-1.28-2.69-1.28-2.68.57-2.68,1.28S243.43,247.36,244.91,247.36Z"/><path class="cls-4" d="M275.19,247.36c1.49,0,2.69-.58,2.69-1.28s-1.2-1.28-2.69-1.28-2.68.57-2.68,1.28S273.71,247.36,275.19,247.36Z"/><path class="cls-4" d="M305.47,247.36c1.49,0,2.69-.58,2.69-1.28s-1.2-1.28-2.69-1.28-2.68.57-2.68,1.28S304,247.36,305.47,247.36Z"/><path class="cls-4" d="M335.75,247.36c1.48,0,2.69-.58,2.69-1.28s-1.21-1.28-2.69-1.28-2.69.57-2.69,1.28S334.27,247.36,335.75,247.36Z"/><path class="cls-4" d="M366,247.36c1.48,0,2.69-.58,2.69-1.28s-1.21-1.28-2.69-1.28-2.69.57-2.69,1.28S364.54,247.36,366,247.36Z"/><path class="cls-4" d="M396.31,247.36c1.48,0,2.68-.58,2.68-1.28s-1.2-1.28-2.68-1.28-2.69.57-2.69,1.28S394.82,247.36,396.31,247.36Z"/><path class="cls-4" d="M426.59,247.36c1.48,0,2.68-.58,2.68-1.28s-1.2-1.28-2.68-1.28-2.69.57-2.69,1.28S425.1,247.36,426.59,247.36Z"/><path class="cls-4" d="M456.86,247.36c1.49,0,2.69-.58,2.69-1.28s-1.2-1.28-2.69-1.28-2.68.57-2.68,1.28S455.38,247.36,456.86,247.36Z"/><path class="cls-4" d="M487.14,247.36c1.49,0,2.69-.58,2.69-1.28s-1.2-1.28-2.69-1.28-2.69.57-2.69,1.28S485.66,247.36,487.14,247.36Z"/><path class="cls-4" d="M517.42,247.36c1.48,0,2.69-.58,2.69-1.28s-1.21-1.28-2.69-1.28-2.69.57-2.69,1.28S515.94,247.36,517.42,247.36Z"/><path class="cls-4" d="M547.7,247.36c1.48,0,2.69-.58,2.69-1.28s-1.21-1.28-2.69-1.28-2.69.57-2.69,1.28S546.22,247.36,547.7,247.36Z"/><path class="cls-4" d="M578,247.36c1.48,0,2.68-.58,2.68-1.28s-1.2-1.28-2.68-1.28-2.69.57-2.69,1.28S576.49,247.36,578,247.36Z"/><path class="cls-4" d="M608.26,247.36c1.48,0,2.68-.58,2.68-1.28s-1.2-1.28-2.68-1.28-2.69.57-2.69,1.28S606.77,247.36,608.26,247.36Z"/><path class="cls-4" d="M638.54,247.36c1.48,0,2.68-.58,2.68-1.28s-1.2-1.28-2.68-1.28-2.69.57-2.69,1.28S637.05,247.36,638.54,247.36Z"/><path class="cls-4" d="M17.83,261.76c1.48,0,2.68-.58,2.68-1.28s-1.2-1.28-2.68-1.28-2.69.57-2.69,1.28S16.34,261.76,17.83,261.76Z"/><path class="cls-4" d="M48.1,261.76c1.49,0,2.69-.58,2.69-1.28s-1.2-1.28-2.69-1.28-2.68.57-2.68,1.28S46.62,261.76,48.1,261.76Z"/><path class="cls-4" d="M78.38,261.76c1.49,0,2.69-.58,2.69-1.28s-1.2-1.28-2.69-1.28-2.68.57-2.68,1.28S76.9,261.76,78.38,261.76Z"/><path class="cls-4" d="M108.66,261.76c1.49,0,2.69-.58,2.69-1.28s-1.2-1.28-2.69-1.28-2.69.57-2.69,1.28S107.18,261.76,108.66,261.76Z"/><path class="cls-4" d="M138.94,261.76c1.48,0,2.69-.58,2.69-1.28s-1.21-1.28-2.69-1.28-2.69.57-2.69,1.28S137.46,261.76,138.94,261.76Z"/><path class="cls-4" d="M169.22,261.76c1.48,0,2.69-.58,2.69-1.28s-1.21-1.28-2.69-1.28-2.69.57-2.69,1.28S167.74,261.76,169.22,261.76Z"/><path class="cls-4" d="M199.5,261.76c1.48,0,2.68-.58,2.68-1.28s-1.2-1.28-2.68-1.28-2.69.57-2.69,1.28S198,261.76,199.5,261.76Z"/><path class="cls-4" d="M229.77,261.76c1.49,0,2.69-.58,2.69-1.28s-1.2-1.28-2.69-1.28-2.68.57-2.68,1.28S228.29,261.76,229.77,261.76Z"/><path class="cls-4" d="M260.05,261.76c1.49,0,2.69-.58,2.69-1.28s-1.2-1.28-2.69-1.28-2.68.57-2.68,1.28S258.57,261.76,260.05,261.76Z"/><path class="cls-4" d="M290.33,261.76c1.49,0,2.69-.58,2.69-1.28s-1.2-1.28-2.69-1.28-2.68.57-2.68,1.28S288.85,261.76,290.33,261.76Z"/><path class="cls-4" d="M320.61,261.76c1.49,0,2.69-.58,2.69-1.28s-1.2-1.28-2.69-1.28-2.69.57-2.69,1.28S319.13,261.76,320.61,261.76Z"/><path class="cls-4" d="M350.89,261.76c1.48,0,2.69-.58,2.69-1.28s-1.21-1.28-2.69-1.28-2.69.57-2.69,1.28S349.41,261.76,350.89,261.76Z"/><path class="cls-4" d="M381.17,261.76c1.48,0,2.69-.58,2.69-1.28s-1.21-1.28-2.69-1.28-2.69.57-2.69,1.28S379.68,261.76,381.17,261.76Z"/><path class="cls-4" d="M411.45,261.76c1.48,0,2.68-.58,2.68-1.28s-1.2-1.28-2.68-1.28-2.69.57-2.69,1.28S410,261.76,411.45,261.76Z"/><path class="cls-4" d="M441.73,261.76c1.48,0,2.68-.58,2.68-1.28s-1.2-1.28-2.68-1.28-2.69.57-2.69,1.28S440.24,261.76,441.73,261.76Z"/><path class="cls-4" d="M472,261.76c1.49,0,2.69-.58,2.69-1.28s-1.2-1.28-2.69-1.28-2.68.57-2.68,1.28S470.52,261.76,472,261.76Z"/><path class="cls-4" d="M502.28,261.76c1.49,0,2.69-.58,2.69-1.28s-1.2-1.28-2.69-1.28-2.69.57-2.69,1.28S500.8,261.76,502.28,261.76Z"/><path class="cls-4" d="M532.56,261.76c1.48,0,2.69-.58,2.69-1.28s-1.21-1.28-2.69-1.28-2.69.57-2.69,1.28S531.08,261.76,532.56,261.76Z"/><path class="cls-4" d="M562.84,261.76c1.48,0,2.69-.58,2.69-1.28s-1.21-1.28-2.69-1.28-2.69.57-2.69,1.28S561.35,261.76,562.84,261.76Z"/><path class="cls-4" d="M593.12,261.76c1.48,0,2.68-.58,2.68-1.28s-1.2-1.28-2.68-1.28-2.69.57-2.69,1.28S591.63,261.76,593.12,261.76Z"/><path class="cls-4" d="M623.4,261.76c1.48,0,2.68-.58,2.68-1.28s-1.2-1.28-2.68-1.28-2.69.57-2.69,1.28S621.91,261.76,623.4,261.76Z"/><path class="cls-4" d="M653.68,261.76c1.48,0,2.68-.58,2.68-1.28s-1.2-1.28-2.68-1.28-2.69.57-2.69,1.28S652.19,261.76,653.68,261.76Z"/><path class="cls-4" d="M2.69,276.16c1.48,0,2.68-.58,2.68-1.28s-1.2-1.28-2.68-1.28S0,274.17,0,274.88,1.2,276.16,2.69,276.16Z"/><path class="cls-4" d="M33,276.16c1.48,0,2.68-.58,2.68-1.28s-1.2-1.28-2.68-1.28-2.69.57-2.69,1.28S31.48,276.16,33,276.16Z"/><path class="cls-4" d="M63.24,276.16c1.49,0,2.69-.58,2.69-1.28s-1.2-1.28-2.69-1.28-2.68.57-2.68,1.28S61.76,276.16,63.24,276.16Z"/><path class="cls-4" d="M93.52,276.16c1.49,0,2.69-.58,2.69-1.28s-1.2-1.28-2.69-1.28-2.68.57-2.68,1.28S92,276.16,93.52,276.16Z"/><path class="cls-4" d="M123.8,276.16c1.48,0,2.69-.58,2.69-1.28s-1.21-1.28-2.69-1.28-2.69.57-2.69,1.28S122.32,276.16,123.8,276.16Z"/><path class="cls-4" d="M154.08,276.16c1.48,0,2.69-.58,2.69-1.28s-1.21-1.28-2.69-1.28-2.69.57-2.69,1.28S152.6,276.16,154.08,276.16Z"/><path class="cls-4" d="M184.36,276.16c1.48,0,2.69-.58,2.69-1.28s-1.21-1.28-2.69-1.28-2.69.57-2.69,1.28S182.87,276.16,184.36,276.16Z"/><path class="cls-4" d="M214.64,276.16c1.48,0,2.68-.58,2.68-1.28s-1.2-1.28-2.68-1.28-2.69.57-2.69,1.28S213.15,276.16,214.64,276.16Z"/><path class="cls-4" d="M244.91,276.16c1.49,0,2.69-.58,2.69-1.28s-1.2-1.28-2.69-1.28-2.68.57-2.68,1.28S243.43,276.16,244.91,276.16Z"/><path class="cls-4" d="M275.19,276.16c1.49,0,2.69-.58,2.69-1.28s-1.2-1.28-2.69-1.28-2.68.57-2.68,1.28S273.71,276.16,275.19,276.16Z"/><path class="cls-4" d="M305.47,276.16c1.49,0,2.69-.58,2.69-1.28s-1.2-1.28-2.69-1.28-2.68.57-2.68,1.28S304,276.16,305.47,276.16Z"/><path class="cls-4" d="M335.75,276.16c1.48,0,2.69-.58,2.69-1.28s-1.21-1.28-2.69-1.28-2.69.57-2.69,1.28S334.27,276.16,335.75,276.16Z"/><path class="cls-4" d="M366,276.16c1.48,0,2.69-.58,2.69-1.28s-1.21-1.28-2.69-1.28-2.69.57-2.69,1.28S364.54,276.16,366,276.16Z"/><path class="cls-4" d="M396.31,276.16c1.48,0,2.68-.58,2.68-1.28s-1.2-1.28-2.68-1.28-2.69.57-2.69,1.28S394.82,276.16,396.31,276.16Z"/><path class="cls-4" d="M426.59,276.16c1.48,0,2.68-.58,2.68-1.28s-1.2-1.28-2.68-1.28-2.69.57-2.69,1.28S425.1,276.16,426.59,276.16Z"/><path class="cls-4" d="M456.86,276.16c1.49,0,2.69-.58,2.69-1.28s-1.2-1.28-2.69-1.28-2.68.57-2.68,1.28S455.38,276.16,456.86,276.16Z"/><path class="cls-4" d="M487.14,276.16c1.49,0,2.69-.58,2.69-1.28s-1.2-1.28-2.69-1.28-2.69.57-2.69,1.28S485.66,276.16,487.14,276.16Z"/><path class="cls-4" d="M517.42,276.16c1.48,0,2.69-.58,2.69-1.28s-1.21-1.28-2.69-1.28-2.69.57-2.69,1.28S515.94,276.16,517.42,276.16Z"/><path class="cls-4" d="M547.7,276.16c1.48,0,2.69-.58,2.69-1.28s-1.21-1.28-2.69-1.28-2.69.57-2.69,1.28S546.22,276.16,547.7,276.16Z"/><path class="cls-4" d="M578,276.16c1.48,0,2.68-.58,2.68-1.28s-1.2-1.28-2.68-1.28-2.69.57-2.69,1.28S576.49,276.16,578,276.16Z"/><path class="cls-4" d="M608.26,276.16c1.48,0,2.68-.58,2.68-1.28s-1.2-1.28-2.68-1.28-2.69.57-2.69,1.28S606.77,276.16,608.26,276.16Z"/><path class="cls-4" d="M638.54,276.16c1.48,0,2.68-.58,2.68-1.28s-1.2-1.28-2.68-1.28-2.69.57-2.69,1.28S637.05,276.16,638.54,276.16Z"/><path class="cls-4" d="M17.83,290.56c1.48,0,2.68-.58,2.68-1.28S19.31,288,17.83,288s-2.69.57-2.69,1.28S16.34,290.56,17.83,290.56Z"/><path class="cls-4" d="M48.1,290.56c1.49,0,2.69-.58,2.69-1.28S49.59,288,48.1,288s-2.68.57-2.68,1.28S46.62,290.56,48.1,290.56Z"/><path class="cls-4" d="M78.38,290.56c1.49,0,2.69-.58,2.69-1.28S79.87,288,78.38,288s-2.68.57-2.68,1.28S76.9,290.56,78.38,290.56Z"/><ellipse class="cls-4" cx="108.66" cy="289.28" rx="2.69" ry="1.28"/><path class="cls-4" d="M138.94,290.56c1.48,0,2.69-.58,2.69-1.28s-1.21-1.28-2.69-1.28-2.69.57-2.69,1.28S137.46,290.56,138.94,290.56Z"/><path class="cls-4" d="M169.22,290.56c1.48,0,2.69-.58,2.69-1.28S170.7,288,169.22,288s-2.69.57-2.69,1.28S167.74,290.56,169.22,290.56Z"/><path class="cls-4" d="M199.5,290.56c1.48,0,2.68-.58,2.68-1.28S201,288,199.5,288s-2.69.57-2.69,1.28S198,290.56,199.5,290.56Z"/><path class="cls-4" d="M229.77,290.56c1.49,0,2.69-.58,2.69-1.28s-1.2-1.28-2.69-1.28-2.68.57-2.68,1.28S228.29,290.56,229.77,290.56Z"/><ellipse class="cls-4" cx="260.05" cy="289.28" rx="2.69" ry="1.28"/><path class="cls-4" d="M290.33,290.56c1.49,0,2.69-.58,2.69-1.28s-1.2-1.28-2.69-1.28-2.68.57-2.68,1.28S288.85,290.56,290.33,290.56Z"/><path class="cls-4" d="M320.61,290.56c1.49,0,2.69-.58,2.69-1.28s-1.2-1.28-2.69-1.28-2.69.57-2.69,1.28S319.13,290.56,320.61,290.56Z"/><path class="cls-4" d="M350.89,290.56c1.48,0,2.69-.58,2.69-1.28s-1.21-1.28-2.69-1.28-2.69.57-2.69,1.28S349.41,290.56,350.89,290.56Z"/><path class="cls-4" d="M381.17,290.56c1.48,0,2.69-.58,2.69-1.28s-1.21-1.28-2.69-1.28-2.69.57-2.69,1.28S379.68,290.56,381.17,290.56Z"/><ellipse class="cls-4" cx="411.45" cy="289.28" rx="2.69" ry="1.28"/><path class="cls-4" d="M441.73,290.56c1.48,0,2.68-.58,2.68-1.28s-1.2-1.28-2.68-1.28-2.69.57-2.69,1.28S440.24,290.56,441.73,290.56Z"/><path class="cls-4" d="M472,290.56c1.49,0,2.69-.58,2.69-1.28S473.49,288,472,288s-2.68.57-2.68,1.28S470.52,290.56,472,290.56Z"/><path class="cls-4" d="M502.28,290.56c1.49,0,2.69-.58,2.69-1.28s-1.2-1.28-2.69-1.28-2.69.57-2.69,1.28S500.8,290.56,502.28,290.56Z"/><path class="cls-4" d="M532.56,290.56c1.48,0,2.69-.58,2.69-1.28S534,288,532.56,288s-2.69.57-2.69,1.28S531.08,290.56,532.56,290.56Z"/><ellipse class="cls-4" cx="562.84" cy="289.28" rx="2.69" ry="1.28"/><path class="cls-4" d="M593.12,290.56c1.48,0,2.68-.58,2.68-1.28s-1.2-1.28-2.68-1.28-2.69.57-2.69,1.28S591.63,290.56,593.12,290.56Z"/><path class="cls-4" d="M623.4,290.56c1.48,0,2.68-.58,2.68-1.28s-1.2-1.28-2.68-1.28-2.69.57-2.69,1.28S621.91,290.56,623.4,290.56Z"/><path class="cls-4" d="M653.68,290.56c1.48,0,2.68-.58,2.68-1.28s-1.2-1.28-2.68-1.28-2.69.57-2.69,1.28S652.19,290.56,653.68,290.56Z"/><path class="cls-4" d="M2.69,305c1.48,0,2.68-.58,2.68-1.28s-1.2-1.28-2.68-1.28S0,303,0,303.68,1.2,305,2.69,305Z"/><ellipse class="cls-4" cx="32.97" cy="303.68" rx="2.69" ry="1.28"/><path class="cls-4" d="M63.24,305c1.49,0,2.69-.58,2.69-1.28s-1.2-1.28-2.69-1.28-2.68.57-2.68,1.28S61.76,305,63.24,305Z"/><path class="cls-4" d="M93.52,305c1.49,0,2.69-.58,2.69-1.28s-1.2-1.28-2.69-1.28-2.68.57-2.68,1.28S92,305,93.52,305Z"/><path class="cls-4" d="M123.8,305c1.48,0,2.69-.58,2.69-1.28s-1.21-1.28-2.69-1.28-2.69.57-2.69,1.28S122.32,305,123.8,305Z"/><path class="cls-4" d="M154.08,305c1.48,0,2.69-.58,2.69-1.28s-1.21-1.28-2.69-1.28-2.69.57-2.69,1.28S152.6,305,154.08,305Z"/><ellipse class="cls-4" cx="184.36" cy="303.68" rx="2.69" ry="1.28"/><path class="cls-4" d="M214.64,305c1.48,0,2.68-.58,2.68-1.28s-1.2-1.28-2.68-1.28S212,303,212,303.68,213.15,305,214.64,305Z"/><path class="cls-4" d="M244.91,305c1.49,0,2.69-.58,2.69-1.28s-1.2-1.28-2.69-1.28-2.68.57-2.68,1.28S243.43,305,244.91,305Z"/><path class="cls-4" d="M275.19,305c1.49,0,2.69-.58,2.69-1.28s-1.2-1.28-2.69-1.28-2.68.57-2.68,1.28S273.71,305,275.19,305Z"/><path class="cls-4" d="M305.47,305c1.49,0,2.69-.58,2.69-1.28s-1.2-1.28-2.69-1.28-2.68.57-2.68,1.28S304,305,305.47,305Z"/><ellipse class="cls-4" cx="335.75" cy="303.68" rx="2.69" ry="1.28"/><path class="cls-4" d="M366,305c1.48,0,2.69-.58,2.69-1.28s-1.21-1.28-2.69-1.28-2.69.57-2.69,1.28S364.54,305,366,305Z"/><path class="cls-4" d="M396.31,305c1.48,0,2.68-.58,2.68-1.28s-1.2-1.28-2.68-1.28-2.69.57-2.69,1.28S394.82,305,396.31,305Z"/><path class="cls-4" d="M426.59,305c1.48,0,2.68-.58,2.68-1.28s-1.2-1.28-2.68-1.28-2.69.57-2.69,1.28S425.1,305,426.59,305Z"/><path class="cls-4" d="M456.86,305c1.49,0,2.69-.58,2.69-1.28s-1.2-1.28-2.69-1.28-2.68.57-2.68,1.28S455.38,305,456.86,305Z"/><ellipse class="cls-4" cx="487.14" cy="303.68" rx="2.69" ry="1.28"/><path class="cls-4" d="M517.42,305c1.48,0,2.69-.58,2.69-1.28s-1.21-1.28-2.69-1.28-2.69.57-2.69,1.28S515.94,305,517.42,305Z"/><path class="cls-4" d="M547.7,305c1.48,0,2.69-.58,2.69-1.28s-1.21-1.28-2.69-1.28S545,303,545,303.68,546.22,305,547.7,305Z"/><path class="cls-4" d="M578,305c1.48,0,2.68-.58,2.68-1.28s-1.2-1.28-2.68-1.28-2.69.57-2.69,1.28S576.49,305,578,305Z"/><path class="cls-4" d="M608.26,305c1.48,0,2.68-.58,2.68-1.28s-1.2-1.28-2.68-1.28-2.69.57-2.69,1.28S606.77,305,608.26,305Z"/><ellipse class="cls-4" cx="638.54" cy="303.68" rx="2.69" ry="1.28"/></g></g></svg>